<svg id="Capa_1" enable-background="new 0 0 512 512" height="512" viewBox="0 0 512 512" width="512" xmlns="http://www.w3.org/2000/svg"><g><path d="m8.953 223.071c0 123.001 100.069 223.07 223.07 223.07v-283.07z" fill="#4ad0ff"/><path d="m232.024 163.071v283.07c123.001 0 223.071-100.069 223.071-223.07z" fill="#1f8dcd"/><path d="m455.094 223.071c0-123.002-100.069-223.071-223.07-223.071v223.071z" fill="#16a5d9"/><path d="m232.024 0c-123.002 0-223.071 100.069-223.071 223.071h223.07v-223.071z" fill="#86e0ff"/><path d="m343.559 223.071c0 123.001-50.034 223.07-111.535 223.07l-60-268.07h115.767z" fill="#16a5d9"/><path d="m232.024 0c61.501 0 111.535 100.069 111.535 223.071h-156.535z" fill="#30bbec"/><path d="m120.489 223.071c0 123.001 50.034 223.07 111.535 223.07v-223.07l-55.768-45z" fill="#30bbec"/><path d="m232.024 0c-61.501 0-111.535 100.069-111.535 223.071h111.535z" fill="#4ad0ff"/><path d="m496.565 440.233-111.572-193.241c-9.208-15.948-25.321-23.921-41.434-23.921l-60 144.465 60 144.465h111.572c36.831-.001 59.85-39.872 41.434-71.768z" fill="#f71e45"/><path d="m302.125 246.992-111.572 193.241c-18.416 31.896 4.603 71.767 41.434 71.767h111.572v-288.929c-16.113 0-32.226 7.973-41.434 23.921z" fill="#fa4350"/><path d="m358.559 463.24h-15l-7.5-15 7.5-15h15z" fill="#e7e6e6"/><path d="m328.559 433.24h15v30h-15z" fill="#fff"/><path d="m358.559 403.24h-15l-7.5-52.388 7.5-52.388h15z" fill="#e7e6e6"/><path d="m328.559 298.464h15v104.776h-15z" fill="#fff"/></g></svg>